name Run_20002_IK.mot
datacolumns 164
datarows 4
range 2.34 2.37
endheader
time	         pelvis_tilt	         pelvis_list	     pelvis_rotation	           pelvis_tx	           pelvis_ty	           pelvis_tz	       hip_flexion_r	     hip_adduction_r	      hip_rotation_r	        knee_angle_r	       ankle_angle_r	       hip_flexion_l	     hip_adduction_l	      hip_rotation_l	        knee_angle_l	       ankle_angle_l	    lumbar_extension	      lumbar_bending	     lumbar_rotation	          arm_flex_r	           arm_add_r	           arm_rot_r	        elbow_flex_r	           pro_sup_r	          arm_flex_l	           arm_add_l	           arm_rot_l	        elbow_flex_l	           pro_sup_l	    subtalar_angle_r	         mtp_angle_r	    subtalar_angle_l	         mtp_angle_l	        wrist_flex_r	         wrist_dev_r	        wrist_flex_l	         wrist_dev_l	             LASI_tx	             LASI_ty	             LASI_tz	             RASI_tx	             RASI_ty	             RASI_tz	             LPSI_tx	             LPSI_ty	             LPSI_tz	             RPSI_tx	             RPSI_ty	             RPSI_tz	             RTH1_tx	             RTH1_ty	             RTH1_tz	             RTH2_tx	             RTH2_ty	             RTH2_tz	             RTH3_tx	             RTH3_ty	             RTH3_tz	             LTH1_tx	             LTH1_ty	             LTH1_tz	             LTH2_tx	             LTH2_ty	             LTH2_tz	             LTH3_tx	             LTH3_ty	             LTH3_tz	             RTB1_tx	             RTB1_ty	             RTB1_tz	             RTB2_tx	             RTB2_ty	             RTB2_tz	             RTB3_tx	             RTB3_ty	             RTB3_tz	             LTB1_tx	             LTB1_ty	             LTB1_tz	             LTB2_tx	             LTB2_ty	             LTB2_tz	             LTB3_tx	             LTB3_ty	             LTB3_tz	             RCAL_tx	             RCAL_ty	             RCAL_tz	             RTOE_tx	             RTOE_ty	             RTOE_tz	             RMT5_tx	             RMT5_ty	             RMT5_tz	             LCAL_tx	             LCAL_ty	             LCAL_tz	             LTOE_tx	             LTOE_ty	             LTOE_tz	             LMT5_tx	             LMT5_ty	             LMT5_tz	             LACR_tx	             LACR_ty	             LACR_tz	             RACR_tx	             RACR_ty	             RACR_tz	             CLAV_tx	             CLAV_ty	             CLAV_tz	               C7_tx	               C7_ty	               C7_tz	             RUA1_tx	             RUA1_ty	             RUA1_tz	             RUA2_tx	             RUA2_ty	             RUA2_tz	             RUA3_tx	             RUA3_ty	             RUA3_tz	             RLEL_tx	             RLEL_ty	             RLEL_tz	             RMEL_tx	             RMEL_ty	             RMEL_tz	             LUA1_tx	             LUA1_ty	             LUA1_tz	             LUA2_tx	             LUA2_ty	             LUA2_tz	             LUA3_tx	             LUA3_ty	             LUA3_tz	             LLEL_tx	             LLEL_ty	             LLEL_tz	             LMEL_tx	             LMEL_ty	             LMEL_tz	      RFAsuperior_tx	      RFAsuperior_ty	      RFAsuperior_tz	        RFAradius_tx	        RFAradius_ty	        RFAradius_tz	          RFAulna_tx	          RFAulna_ty	          RFAulna_tz	      LFAsuperior_tx	      LFAsuperior_ty	      LFAsuperior_tz	        LFAradius_tx	        LFAradius_ty	        LFAradius_tz	          LFAulna_tx	          LFAulna_ty	          LFAulna_tz	
2.34	        -13.63865679	          2.34696486	         -1.56576536	          1.02394132	          0.99322607	         -0.36545319	         38.17192787	         -0.06535155	          4.22359147	        -76.48179914	          7.08706605	         19.86530714	          7.74804101	         -0.02176951	        -34.57336039	         18.71333054	          0.64049285	         -3.01547520	         -3.43807313	        -33.24946655	        -19.07192267	         -9.35745159	         85.65245786	        127.44333133	        -19.86490270	        -13.37701383	         -8.94196594	        114.42551844	        102.24295108	          0.00000000	          0.00000000	          0.00000000	          0.00000000	          0.00000000	          0.00000000	          0.00000000	          0.00000000	          1.04652109	          1.02920770	         -0.48242588	          1.03990114	          1.03657607	         -0.24198008	          0.88771279	          1.09806488	         -0.42921406	          0.88124417	          1.09176601	         -0.31562609	          0.97764349	          0.91605191	         -0.19480296	          0.97582846	          0.76567851	         -0.21612532	          1.07040964	          0.63391814	         -0.22083722	          0.99062264	          0.90675034	         -0.54355033	          0.91920430	          0.75356478	         -0.49737525	          0.97439902	          0.62035462	         -0.48748914	          1.04692362	          0.40771260	         -0.28286159	          0.96051462	          0.44111904	         -0.21471324	          0.88980408	          0.30895640	         -0.28768431	          0.98715890	          0.39242917	         -0.41043329	          0.86733243	          0.32444321	         -0.46044709	          0.86539058	          0.20933594	         -0.39519939	          0.70472224	          0.30962176	         -0.27721156	          0.86662850	          0.12913552	         -0.30304170	          0.81430815	          0.14209006	         -0.20825362	          0.68572013	          0.12917421	         -0.37304479	          0.91588380	          0.06993440	         -0.35864424	          0.86190869	          0.03950470	         -0.45546704	          1.03614385	          1.51609832	         -0.53760226	          1.04499571	          1.50503517	         -0.21101314	          1.10120188	          1.47014516	         -0.34190714	          0.98376883	          1.54086595	         -0.37980142	          0.91552291	          1.43275971	         -0.15703470	          0.94128441	          1.36984629	         -0.11895675	          0.85447237	          1.31493929	         -0.08422182	          0.80589464	          1.27118939	         -0.05753378	          0.80229458	          1.23852359	         -0.14076003	          0.94642161	          1.40897134	         -0.59437247	          0.98332173	          1.33173790	         -0.61373710	          0.92228079	          1.25738922	         -0.64066351	          0.91139595	          1.19189717	         -0.65962210	          0.89117366	          1.17281194	         -0.57169442	          0.86638472	          1.17882570	         -0.04413162	          0.97689711	          1.05229974	         -0.12231123	          0.94272859	          1.03740259	         -0.06178681	          0.98294108	          1.14827273	         -0.64795386	          1.14307397	          1.17081996	         -0.54788324	          1.14503199	          1.10555797	         -0.57883534	
2.35	        -13.71754076	          1.86598363	         -1.99174879	          1.02509504	          0.99981472	         -0.36527571	         38.87595885	          0.44491413	          3.77876353	        -73.71249561	          7.60962980	         17.62595377	          7.21638708	          0.19423547	        -32.40827996	         16.44785029	          0.89490182	         -2.18182220	         -3.71876320	        -34.84066034	        -19.50149801	        -10.08696278	         86.83004316	        125.15826750	        -20.19758394	        -13.32048680	         -8.72995450	        116.29769759	        101.96071490	          0.00000000	          0.00000000	          0.00000000	          0.00000000	          0.00000000	          0.00000000	          0.00000000	          0.00000000	          1.04851378	          1.03511925	         -0.48379050	          1.03982626	          1.04355513	         -0.24191787	          0.88977571	          1.10418822	         -0.43059997	          0.88165481	          1.09913741	         -0.31704609	          0.97734320	          0.92420393	         -0.19354110	          0.97858018	          0.77344220	         -0.21483692	          1.07558384	          0.64356863	         -0.22017866	          0.99011460	          0.91081913	         -0.54259809	          0.91273158	          0.76017779	         -0.49654454	          0.96376695	          0.62532331	         -0.48648102	          1.05941076	          0.41331288	         -0.28276028	          0.97049426	          0.44244373	         -0.21618625	          0.90705312	          0.30517449	         -0.28898416	          0.97093295	          0.39667132	         -0.40941968	          0.85125755	          0.32966883	         -0.46042136	          0.84891105	          0.21417937	         -0.39559799	          0.72337189	          0.29455723	         -0.28097322	          0.89730728	          0.12535659	         -0.30319035	          0.84301383	          0.13528361	         -0.20954399	          0.66936154	          0.13689670	         -0.37462597	          0.89659528	          0.06894593	         -0.35806590	          0.84189814	          0.04004442	         -0.45480989	          1.03804457	          1.52379805	         -0.53602392	          1.04309707	          1.51151623	         -0.20983293	          1.10099735	          1.47691034	         -0.33985214	          0.98412038	          1.54720991	         -0.37893358	          0.91197705	          1.44162083	         -0.15839530	          0.93613106	          1.37900434	         -0.11837626	          0.84780180	          1.32608373	         -0.08480169	          0.79775054	          1.28351082	         -0.05868701	          0.79519263	          1.25055291	         -0.14212489	          0.94902228	          1.41703462	         -0.59433446	          0.98661788	          1.33999270	         -0.61367692	          0.92629778	          1.26566340	         -0.64197549	          0.91520102	          1.20019278	         -0.66043180	          0.89324267	          1.18140484	         -0.57293456	          0.85697841	          1.19095304	         -0.04400188	          0.96956220	          1.06528711	         -0.11908428	          0.93290847	          1.04909235	         -0.06066598	          0.98721561	          1.15865759	         -0.64723084	          1.14446933	          1.18637389	         -0.54454224	          1.14886977	          1.12073601	         -0.57461917	
2.36	        -13.75099811	          1.32743504	         -2.42333664	          1.02659735	          1.00668442	         -0.36505196	         39.28993990	          0.97970214	          3.21742789	        -70.51241932	          8.07936763	         15.36899678	          6.57732448	          0.28704501	        -30.25647631	         14.00020428	          1.10970269	         -1.28788926	         -3.89272694	        -36.43579441	        -19.82244809	        -10.88908361	         87.97992329	        122.97403511	        -20.57893412	        -13.26865199	         -8.46820811	        118.12109958	        101.82671907	          0.00000000	          0.00000000	          0.00000000	          0.00000000	          0.00000000	          0.00000000	          0.00000000	          0.00000000	          1.05069628	          1.04129663	         -0.48510304	          1.03996020	          1.05083328	         -0.24185725	          0.89201683	          1.11051288	         -0.43186343	          0.88265560	          1.10644064	         -0.31863486	          0.97736910	          0.93272811	         -0.19235815	          0.98085036	          0.78155213	         -0.21333017	          1.07963873	          0.65326644	         -0.21960653	          0.99001039	          0.91528051	         -0.54159471	          0.90683174	          0.76719384	         -0.49607269	          0.95367542	          0.63092176	         -0.48579668	          1.07117849	          0.41899373	         -0.28279341	          0.97999616	          0.44283549	         -0.21749786	          0.92442751	          0.30097363	         -0.28946526	          0.95502326	          0.40154076	         -0.40840303	          0.83576835	          0.33560386	         -0.46074397	          0.83299253	          0.21967082	         -0.39623890	          0.74321832	          0.27871116	         -0.28515416	          0.92871555	          0.12195672	         -0.30347569	          0.87261649	          0.12868536	         -0.21110193	          0.65384041	          0.14561499	         -0.37631504	          0.87776488	          0.06828957	         -0.35855375	          0.82230944	          0.04098030	         -0.45471801	          1.03998771	          1.53171791	         -0.53438238	          1.04160480	          1.51818869	         -0.20869332	          1.10085176	          1.48396799	         -0.33786889	          0.98446844	          1.55375271	         -0.37798844	          0.90900049	          1.45050341	         -0.15991104	          0.93161359	          1.38817487	         -0.11808301	          0.84180146	          1.33726583	         -0.08570722	          0.79033168	          1.29579046	         -0.06026516	          0.78882268	          1.26270707	         -0.14372113	          0.95174607	          1.42555646	         -0.59449803	          0.98959321	          1.34857413	         -0.61355963	          0.92947711	          1.27450212	         -0.64304049	          0.91840546	          1.20899128	         -0.66131558	          0.89519404	          1.19021011	         -0.57433932	          0.84824440	          1.20295090	         -0.04437860	          0.96289875	          1.07815019	         -0.11633662	          0.92395775	          1.06083564	         -0.06016494	          0.99084992	          1.16938520	         -0.64657654	          1.14523023	          1.20188726	         -0.54135776	          1.15185527	          1.13600330	         -0.57065310	
2.37	        -13.73368188	          0.75652029	         -2.82983141	          1.02841710	          1.01373638	         -0.36481566	         39.41954557	          1.50456970	          2.50931674	        -66.89941406	          8.40923898	         13.13862975	          5.86501917	          0.19849136	        -28.18990518	         11.32419880	          1.26942397	         -0.37137452	         -3.99292191	        -37.99932577	        -20.01298721	        -11.74079258	         89.08445727	        121.26113406	        -21.00571099	        -13.23280245	         -8.14174112	        119.86185032	        101.79714304	          0.00000000	          0.00000000	          0.00000000	          0.00000000	          0.00000000	          0.00000000	          0.00000000	          0.00000000	          1.05305759	          1.04777343	         -0.48656084	          1.04027573	          1.05821374	         -0.24170177	          0.89440865	          1.11694341	         -0.43300376	          0.88414968	          1.11366707	         -0.32009899	          0.97785195	          0.94144578	         -0.19128804	          0.98261619	          0.78980971	         -0.21180348	          1.08235893	          0.66274562	         -0.21920215	          0.99020725	          0.92000754	         -0.54060284	          0.90159400	          0.77442274	         -0.49583530	          0.94421539	          0.63696699	         -0.48542715	          1.08222939	          0.42463970	         -0.28272308	          0.98899180	          0.44225841	         -0.21857498	          0.94279990	          0.29672391	         -0.28987814	          0.94003497	          0.40709302	         -0.40811411	          0.82105833	          0.34214427	         -0.46137472	          0.81788619	          0.22579992	         -0.39710591	          0.76436408	          0.26226906	         -0.28963603	          0.96076460	          0.11897479	         -0.30426155	          0.90293212	          0.12224938	         -0.21293511	          0.63937121	          0.15511878	         -0.37795424	          0.85932015	          0.06778387	         -0.35956361	          0.80312442	          0.04229612	         -0.45505828	          1.04200179	          1.53967413	         -0.53270425	          1.04053394	          1.52493491	         -0.20761412	          1.10076979	          1.49111041	         -0.33600925	          0.98484447	          1.56037993	         -0.37701896	          0.90661224	          1.45942367	         -0.16131271	          0.92772250	          1.39730210	         -0.11803294	          0.83646212	          1.34838534	         -0.08696539	          0.78367763	          1.30786142	         -0.06230041	          0.78332058	          1.27468436	         -0.14568815	          0.95443057	          1.43433455	         -0.59474089	          0.99224041	          1.35735135	         -0.61345471	          0.93190302	          1.28374000	         -0.64393672	          0.92107009	          1.21812597	         -0.66230411	          0.89684788	          1.19907782	         -0.57581785	          0.84034400	          1.21474255	         -0.04529204	          0.95694965	          1.09042084	         -0.11439365	          0.91597051	          1.07246218	         -0.06014921	          0.99390255	          1.18027462	         -0.64600202	          1.14533094	          1.21704408	         -0.53837318	          1.15407101	          1.15098221	         -0.56689995	
